<svg viewBox="0 0 34 35" xmlns="http://www.w3.org/2000/svg">
    <path d="M13.244,0.339c1.114,-0.223 2.265,-0.339 3.441,-0.339c1.184,0 2.343,0.118 3.464,0.343c0.746,0.15 1.327,0.735 1.472,1.482l0.899,4.642c0.072,0.373 0.458,0.596 0.817,0.472l4.461,-1.54c0.719,-0.248 1.516,-0.037 2.019,0.533c1.521,1.725 2.708,3.754 3.459,5.987c0.242,0.72 0.026,1.515 -0.548,2.013l-3.566,3.095c-0.287,0.25 -0.287,0.695 -0,0.944l3.566,3.096c0.574,0.498 0.79,1.293 0.548,2.013c-0.75,2.232 -1.938,4.262 -3.458,5.987c-0.503,0.57 -1.3,0.781 -2.019,0.533l-4.462,-1.54c-0.359,-0.124 -0.745,0.098 -0.817,0.472l-0.9,4.643c-0.144,0.747 -0.725,1.332 -1.471,1.482c-1.121,0.225 -2.28,0.343 -3.464,0.343c-1.176,-0 -2.327,-0.116 -3.441,-0.339c-0.747,-0.149 -1.329,-0.734 -1.474,-1.482l-0.9,-4.647c-0.072,-0.374 -0.458,-0.596 -0.817,-0.472l-4.478,1.545c-0.718,0.248 -1.515,0.038 -2.018,-0.532c-1.52,-1.723 -2.707,-3.749 -3.459,-5.978c-0.243,-0.72 -0.026,-1.516 0.548,-2.015l3.582,-3.109c0.287,-0.249 0.287,-0.694 -0,-0.944l-3.582,-3.108c-0.574,-0.499 -0.79,-1.295 -0.547,-2.016c0.752,-2.228 1.939,-4.254 3.459,-5.977c0.503,-0.57 1.3,-0.78 2.018,-0.532l4.477,1.545c0.359,0.124 0.745,-0.099 0.817,-0.472l0.9,-4.646c0.145,-0.748 0.727,-1.333 1.474,-1.482Zm3.443,11.536c-3.104,-0 -5.625,2.52 -5.625,5.625c0,3.104 2.521,5.625 5.625,5.625c3.105,-0 5.625,-2.521 5.625,-5.625c0,-3.105 -2.52,-5.625 -5.625,-5.625Z" fill="white" />
</svg>
