<svg width="17" height="17" viewBox="0 0 17 17" fill="none" xmlns="http://www.w3.org/2000/svg">
    <path fill-rule="evenodd" clip-rule="evenodd" d="M16 13.8296V8.19059V3.17036C16 1.9717 15.0283 1 13.8296 1H3.17036C1.9717 1 1 1.97171 1 3.17036V8.19059V13.8296C1 15.0283 1.9717 16 3.17036 16H13.8296C15.0283 16 16 15.0283 16 13.8296ZM12.624 8.19059C13.3732 8.19059 13.9805 7.58327 13.9805 6.83411V4.04427C13.9805 3.29511 13.3732 2.6878 12.624 2.6878H4.45056C3.7014 2.6878 3.09408 3.29511 3.09408 4.04427V6.83411C3.09408 7.58327 3.7014 8.19059 4.45056 8.19059H6.34216C6.41057 9.24481 7.34976 10.0801 8.49832 10.0801C9.64688 10.0801 10.5861 9.24481 10.6545 8.19059H12.624Z" fill="white" fill-opacity="0.85" />
</svg>
