<svg width="17" height="16" viewBox="0 0 17 16" fill="none" xmlns="http://www.w3.org/2000/svg">
    <path opacity="0.9" d="M8.00198 0.612134C8.07682 0.381806 8.40267 0.381806 8.47751 0.612134L10.2107 5.94638C10.2442 6.04938 10.3402 6.11912 10.4485 6.11912H16.0572C16.2994 6.11912 16.4001 6.42903 16.2042 6.57138L11.6666 9.86812C11.579 9.93178 11.5423 10.0446 11.5758 10.1476L13.309 15.4819C13.3838 15.7122 13.1202 15.9037 12.9243 15.7614L8.38669 12.4646C8.29907 12.401 8.18042 12.401 8.0928 12.4646L3.55522 15.7614C3.35929 15.9037 3.09567 15.7122 3.17051 15.4819L4.90371 10.1476C4.93718 10.0446 4.90052 9.93178 4.81289 9.86812L0.275313 6.57138C0.0793849 6.42903 0.180079 6.11912 0.42226 6.11912H6.03102C6.13932 6.11912 6.23531 6.04938 6.26878 5.94638L8.00198 0.612134Z" fill="white"/>
</svg>
