<svg width="104" height="28" viewBox="0 0 104 28" fill="none" xmlns="http://www.w3.org/2000/svg">
<path d="M16.2347 26.8283L8.36101 26.8396C8.33081 26.838 8.26883 26.8651 8.23863 26.8635L2.33414 26.8569L2.27375 26.8537C1.91137 26.8347 1.62679 26.4867 1.61559 26.1227L1.6119 2.50292L1.61507 2.44253C1.63406 2.08014 1.98365 1.76537 2.34603 1.78436L7.85794 1.77042L7.97874 1.77675L16.0336 1.77495L16.094 1.77811C16.4564 1.79711 16.7712 2.1467 16.7824 2.51067L16.7486 7.77788L16.7454 7.83828C16.7264 8.20067 16.3768 8.51544 16.0129 8.52665L8.9577 8.52028L8.97258 11.1253L14.3781 11.4086C14.7405 11.4276 15.087 11.7485 15.0664 12.1411L15.0633 12.2015L14.7607 16.8187C14.7084 17.2399 14.389 17.5563 13.9662 17.5341L8.9533 17.2714L8.9571 20.0878L16.3159 20.0798L16.3763 20.083C16.7688 20.1035 17.0836 20.4531 17.0646 20.8155L17.0006 26.0812C16.98 26.4737 16.6591 26.8203 16.2347 26.8283Z" fill="white"/>
<path d="M34.857 11.298L33.4357 14.957C33.3148 15.3199 32.9821 15.6223 32.6192 15.6223C32.4983 15.6223 32.3471 15.5618 32.2261 15.4711C31.6818 15.0175 30.6234 14.6849 29.565 14.6849C28.7788 14.6849 26.148 14.8663 26.148 18.1625C26.148 20.1886 27.5995 21.5191 29.565 21.5191C30.8653 21.5191 32.3773 20.9446 33.8288 19.614C34.0103 19.4326 34.2824 19.2814 34.5546 19.2814C34.7663 19.2814 35.0082 19.4023 35.2199 19.7652C35.7642 20.7934 36.1271 21.3377 36.6109 22.3356C36.7016 22.5171 36.7621 22.7287 36.7621 22.9404C36.7621 23.3033 36.6109 23.6359 36.248 23.9988C33.7986 26.3273 30.8956 27.3555 28.174 27.3555C23.1542 27.3555 18.709 23.8476 18.709 18.5254C18.709 11.7516 24.1219 8.99976 29.1114 8.99976C32.4681 8.99976 34.8872 10.3303 34.8872 11.0863C34.8872 11.1468 34.8872 11.2375 34.857 11.298Z" fill="white"/>
<path d="M59.0041 24.6642L56.1314 27.0229C55.7987 27.295 55.4963 27.3858 55.2242 27.3858C55.1032 27.3858 49.5089 26.3576 49.5089 20.2189C49.5089 16.5598 47.8154 15.2595 45.6382 15.2595H45.487V26.2366C45.487 26.5995 45.2148 26.8717 44.8822 26.8717H38.8343C38.4714 26.8717 38.1992 26.5995 38.1992 26.2366V1.50027C38.1992 1.16763 38.4714 0.865234 38.8343 0.865234H44.8822C45.2148 0.865234 45.487 1.16763 45.487 1.50027V9.36269C45.8499 9.33245 46.2127 9.33245 46.5454 9.33245C52.2304 9.33245 56.7664 12.7193 56.8571 18.7069C56.8874 20.6725 57.2805 22.1845 58.7622 23.3638C58.9437 23.515 59.2763 23.8174 59.2763 24.1501C59.2763 24.3013 59.2158 24.4827 59.0041 24.6642Z" fill="white"/>
<path fill-rule="evenodd" clip-rule="evenodd" d="M68.2377 27.3855C72.5318 27.3855 78.5192 24.0893 78.5192 18.1925C78.5192 14.2613 75.6465 9.02979 68.9635 9.02979C63.6413 9.02979 58.9844 12.2655 58.9844 18.4949C58.9844 23.8172 63.3087 27.3855 68.2377 27.3855ZM68.9641 21.6098C71.1111 21.6098 72.0788 19.8559 72.0788 18.1322C72.0788 17.5576 71.9578 14.6243 68.8734 14.6243C66.3333 14.6243 65.6075 16.7714 65.6075 18.1322C65.6075 20.2187 67.2404 21.6098 68.9641 21.6098Z" fill="white"/>
<path d="M87.3913 26.8901L81.3358 26.8756L81.2754 26.8724C80.9432 26.855 80.7159 26.5706 80.7031 26.2368L80.7189 11.4905C80.7379 11.1281 80.9937 10.869 81.3577 10.8578L87.4132 10.8724L87.4735 10.8755C87.7755 10.8913 88.0331 11.1774 88.0172 11.4794L87.9999 26.2559L87.9967 26.3162C87.9809 26.6182 87.6949 26.8758 87.3913 26.8901ZM87.3913 26.8901L81.3358 26.8756L81.2754 26.8724C80.9432 26.855 80.7159 26.5706 80.7031 26.2368L80.7189 11.4905" fill="white"/>
<path d="M84.2225 8.74263C86.2982 8.74263 87.9896 7.05124 87.9896 4.97544C87.9896 2.87401 86.2982 1.18262 84.2225 1.18262C82.1211 1.18262 80.4297 2.87401 80.4297 4.97544C80.4297 7.05124 82.1211 8.74263 84.2225 8.74263Z" fill="white"/>
<path d="M97.6556 27.0015L91.6311 26.8875C91.2691 26.8622 90.983 26.6187 91.0064 26.2852L91.1724 11.7727C91.1957 11.4392 91.4866 11.1802 91.8185 11.2034L95.3294 11.2813C96.9914 10.9227 98.5756 10.81 100.084 10.9155C101.11 10.9872 102.097 11.168 103.019 11.428C103.463 11.5708 103.629 11.8058 103.606 12.1394C103.598 12.2505 103.56 12.3596 103.52 12.4965L102.371 16.3544C102.253 16.7372 101.938 16.9107 101.576 16.8854C101.486 16.879 101.367 16.8428 101.248 16.8066C100.775 16.6339 100.268 16.5146 99.7555 16.4787C99.3332 16.4492 98.907 16.4753 98.4165 16.5527L98.3016 26.4322L98.2978 26.4878C98.2764 26.7936 97.9874 27.0247 97.6556 27.0015Z" fill="white"/>
</svg>
